#!OML:ASF E:\emotionWalksFemale\Project 1\Capture day 1\Session 1\Female1.ASF
:FULLY-SPECIFIED
:DEGREES
355
root 9.29288 15.566 6.68875 177.977 -5.36962 -179.866
lowerback 8.12075 0.904716 2.30183
upperback -4.85337 1.34621 -0.707676
thorax -9.66842 0.433674 -2.26301
lowerneck -9.01855 -3.03653 -5.18334
upperneck 5.29967 -3.5529 1.64411
head 3.47036 -1.80758 1.2537
rclavicle -4.41053e-015 -2.98177e-016
rhumerus -71.1216 -18.3188 -53.6193
rradius 25.5666
rwrist 49.9628
rhand 26.2521 -57.4552
rfingers 7.12502
rthumb 50.3082 -78.5146
lclavicle -4.41053e-015 -2.98177e-016
lhumerus -75.4175 29.1899 39.3375
lradius 27.1413
lwrist -31.234
lhand 34.1113 -30.314
lfingers 7.12502
lthumb 57.3603 -14.0321
rfemur 8.36863 22.3533 31.6925
rtibia 12.6991
rfoot -14.959 -38.7786
rtoes 2.52395
lfemur -0.769939 -23.4278 -24.3202
ltibia 24.6321
lfoot -24.1625 22.2112
ltoes -26.0291
356
root 9.30472 15.5673 6.69903 177.798 -5.58523 -179.834
lowerback 8.24624 0.909507 2.36099
upperback -4.67343 1.36466 -0.798819
thorax -9.5407 0.444236 -2.39752
lowerneck -9.1212 -3.08155 -5.02785
upperneck 5.20305 -3.62608 1.64617
head 3.45492 -1.83882 1.22113
rclavicle 1.54555e-014 1.68967e-015
rhumerus -71.3152 -18.0587 -53.7802
rradius 25.1532
rwrist 49.6263
rhand 28.2932 -56.4022
rfingers 7.12502
rthumb 52.1661 -76.4087
lclavicle 1.54555e-014 1.68967e-015
lhumerus -75.3277 29.135 39.2309
lradius 27.5365
lwrist -29.3464
lhand 33.8794 -28.6303
lfingers 7.12502
lthumb 57.1568 -12.1757
rfemur 8.53331 22.1519 31.8199
rtibia 12.6346
rfoot -14.6543 -38.8448
rtoes 2.44717
lfemur -0.731268 -23.243 -24.2108
ltibia 24.7116
lfoot -24.1626 21.7658
ltoes -25.6662
357
root 9.31613 15.5697 6.71148 177.633 -5.73137 -179.795
lowerback 8.50167 0.917519 2.47003
upperback -4.57125 1.39552 -0.875814
thorax -9.57417 0.452841 -2.55165
lowerneck -9.43024 -3.12769 -4.88726
upperneck 5.42413 -3.67562 1.46047
head 3.58517 -1.86932 1.12721
rclavicle -6.18717e-015 -9.14409e-015
rhumerus -71.5665 -17.6839 -53.9233
rradius 25.0539
rwrist 48.2666
rhand 28.6293 -56.4171
rfingers 7.12502
rthumb 52.4705 -76.239
lclavicle -6.18717e-015 -9.14409e-015
lhumerus -75.134 29.1703 38.8829
lradius 27.7557
lwrist -27.3256
lhand 32.676 -27.4043
lfingers 7.12502
lthumb 56.0954 -10.0888
rfemur 8.63214 21.9164 31.9118
rtibia 12.6082
rfoot -14.4668 -38.8318
rtoes 2.48078
lfemur -0.727402 -22.9725 -24.0902
ltibia 24.7846
lfoot -23.9779 21.4138
ltoes -25.5524
358
root 9.32493 15.572 6.72453 177.514 -5.86304 -179.869
lowerback 8.6563 0.947075 2.51894
upperback -4.44559 1.44521 -0.948371
thorax -9.52186 0.476563 -2.66728
lowerneck -9.75941 -3.17897 -5.03441
upperneck 5.64664 -3.703 1.38846
head 3.73162 -1.89104 1.12357
rclavicle 1.18525e-014 0
rhumerus -71.7801 -17.3534 -53.907
rradius 25.3567
rwrist 46.6354
rhand 29.16 -57.503
rfingers 7.12502
rthumb 52.9502 -77.0268
lclavicle 1.18525e-014 0
lhumerus -74.881 29.3198 38.4846
lradius 28.0707
lwrist -25.6861
lhand 30.9762 -27.0841
lfingers 7.12502
lthumb 54.5824 -8.64768
rfemur 8.68389 21.6213 31.8364
rtibia 12.6176
rfoot -14.4274 -38.7024
rtoes 2.31241
lfemur -0.755837 -22.6802 -24.0908
ltibia 24.8347
lfoot -23.7372 21.0904
ltoes -25.6741
359
root 9.33242 15.5778 6.73825 177.529 -6.01563 -179.962
lowerback 8.58785 0.949535 2.51063
upperback -4.30846 1.44611 -0.99316
thorax -9.32988 0.483794 -2.7063
lowerneck -9.98335 -3.18716 -5.17065
upperneck 5.65002 -3.68019 1.32714
head 3.77846 -1.88584 1.12651
rclavicle 1.02623e-014 -2.78299e-015
rhumerus -71.9119 -17.2152 -53.5415
rradius 25.8879
rwrist 45.3827
rhand 30.1616 -58.9473
rfingers 7.12502
rthumb 53.8522 -77.8848
lclavicle 1.02623e-014 -2.78299e-015
lhumerus -74.4326 29.2608 38.714
lradius 28.7967
lwrist -23.9909
lhand 28.6891 -26.4573
lfingers 7.12502
lthumb 52.5246 -6.6685
rfemur 8.50272 21.0583 31.6075
rtibia 12.7293
rfoot -14.0065 -38.3268
rtoes 1.26686
lfemur -0.911236 -22.4757 -24.0734
ltibia 24.8373
lfoot -23.4698 20.8603
ltoes -26.0203
360
root 9.33971 15.5868 6.75565 177.703 -6.17093 -180.064
lowerback 8.5047 0.934692 2.48299
upperback -4.27692 1.41521 -1.05509
thorax -9.24732 0.470468 -2.74893
lowerneck -10.2791 -3.15634 -5.0578
upperneck 5.83454 -3.62046 1.09962
head 3.8907 -1.86597 1.03002
rclavicle 3.7297e-014 4.37326e-015
rhumerus -71.9664 -17.2886 -52.8079
rradius 26.3144
rwrist 44.2594
rhand 29.8112 -60.2134
rfingers 7.12502
rthumb 53.5371 -79.3596
lclavicle 3.7297e-014 4.37326e-015
lhumerus -73.8461 28.9837 39.1721
lradius 29.6489
lwrist -22.5171
lhand 26.011 -25.8681
lfingers 7.12502
lthumb 50.0877 -4.69159
rfemur 8.06101 20.3889 31.2517
rtibia 12.9039
rfoot -13.2985 -37.8434
rtoes -0.321224
lfemur -1.24112 -22.3124 -24.01
ltibia 24.8089
lfoot -23.1112 20.7736
ltoes -27.014
361
root 9.34739 15.5936 6.77064 177.851 -6.25015 -180.208
lowerback 8.44098 0.963008 2.38045
upperback -4.27067 1.43148 -1.12828
thorax -9.2021 0.482594 -2.76986
lowerneck -10.4823 -3.14654 -5.09792
upperneck 6.05366 -3.5919 1.1297
head 4.01052 -1.85323 1.04651
rclavicle -6.21202e-015 3.37934e-015
rhumerus -71.8978 -17.3837 -52.0181
rradius 26.7475
rwrist 43.1737
rhand 28.7424 -61.2656
rfingers 7.12502
rthumb 52.5728 -81.0247
lclavicle -6.21202e-015 3.37934e-015
lhumerus -73.1793 28.7768 39.3741
lradius 30.2948
lwrist -21.6282
lhand 23.1647 -25.7631
lfingers 7.12502
lthumb 47.471 -3.30725
rfemur 7.6759 19.8632 30.8745
rtibia 13.0307
rfoot -12.7841 -37.3948
rtoes -1.50392
lfemur -1.50953 -22.2559 -24.0411
ltibia 24.7913
lfoot -22.818 20.7849
ltoes -27.4065
362
root 9.35371 15.598 6.78067 177.919 -6.24897 -180.223
lowerback 8.38393 0.995907 2.35879
upperback -4.24788 1.47334 -1.11553
thorax -9.14153 0.50651 -2.74857
lowerneck -10.5604 -3.13597 -5.38871
upperneck 6.08718 -3.55242 1.37737
head 4.05231 -1.82918 1.18483
rclavicle 1.90088e-014 3.18055e-015
rhumerus -71.7033 -17.2561 -51.3774
rradius 27.3104
rwrist 42.3093
rhand 27.483 -61.8697
rfingers 7.12502
rthumb 51.4305 -82.3076
lclavicle 1.90088e-014 3.18055e-015
lhumerus -72.5634 28.7723 39.3008
lradius 30.8538
lwrist -21.1585
lhand 20.4774 -25.4594
lfingers 7.12502
lthumb 44.9796 -1.9518
rfemur 7.42314 19.5158 30.6972
rtibia 13.1102
rfoot -12.289 -37.011
rtoes -2.32467
lfemur -1.65726 -22.2761 -24.0061
ltibia 24.788
lfoot -22.5442 20.9331
ltoes -27.5946
363
root 9.35643 15.6029 6.79145 178.001 -6.21728 -180.117
lowerback 8.39873 1.00288 2.47008
upperback -4.25617 1.50384 -1.0426
thorax -9.15684 0.517009 -2.73896
lowerneck -10.5963 -3.09974 -5.61235
upperneck 5.98976 -3.48122 1.50082
head 4.03187 -1.79283 1.27219
rclavicle -2.26118e-015 -5.1684e-015
rhumerus -71.37 -16.9815 -50.9289
rradius 28.0448
rwrist 41.288
rhand 25.4975 -61.9393
rfingers 7.12502
rthumb 49.6175 -83.3606
lclavicle -2.26118e-015 -5.1684e-015
lhumerus -71.8045 28.6344 39.5514
lradius 31.4905
lwrist -20.4724
lhand 18.0369 -25.2233
lfingers 7.12502
lthumb 42.7021 -0.872959
rfemur 7.1757 19.292 30.6663
rtibia 13.1804
rfoot -11.7818 -36.7088
rtoes -2.86365
lfemur -1.80975 -22.2925 -23.8577
ltibia 24.7789
lfoot -22.2777 21.1604
ltoes -28.226
